<?xml version="1.0" encoding="UTF-8"?>
<svg version="1.1" xmlns="http://www.w3.org/2000/svg" width="562" height="192">
<path d="M0 0 C185.46 0 370.92 0 562 0 C562 63.36 562 126.72 562 192 C376.54 192 191.08 192 0 192 C0 128.64 0 65.28 0 0 Z " fill="#FDFDFD" transform="translate(0,0)"/>
<path d="M0 0 C0.81831802 -0.00570007 1.63663605 -0.01140015 2.47975159 -0.01727295 C4.22078147 -0.02674502 5.96182946 -0.03326564 7.70288086 -0.03710938 C10.33675864 -0.04672119 12.96982439 -0.07768256 15.60351562 -0.109375 C32.03463873 -0.21031265 32.03463873 -0.21031265 39.94140625 3.203125 C39.94140625 3.863125 39.94140625 4.523125 39.94140625 5.203125 C40.51890625 5.43 41.09640625 5.656875 41.69140625 5.890625 C45.50224399 8.11361368 47.56070289 11.06101492 48.94140625 15.203125 C50.07791998 32.12041137 50.07791998 32.12041137 44.94140625 38.203125 C43.01091274 40.03003105 41.0753827 41.60264266 38.94140625 43.203125 C39.55628906 43.69941406 40.17117187 44.19570312 40.8046875 44.70703125 C49.43021764 51.95687875 49.43021764 51.95687875 50.94140625 58.203125 C51.72038937 67.65252895 51.16366547 74.75007093 46.31640625 82.953125 C42.96138102 86.13156996 39.2376477 87.61115203 34.94140625 89.203125 C34.07990967 89.54682129 33.21841309 89.89051758 32.33081055 90.24462891 C28.21049465 91.40982088 24.55236547 91.47303765 20.296875 91.43359375 C19.4864827 91.43313553 18.67609039 91.43267731 17.84114075 91.4322052 C16.13927738 91.4291985 14.43741637 91.42135995 12.7355957 91.40893555 C10.11985643 91.39056143 7.50446926 91.38842688 4.88867188 91.38867188 C3.23306983 91.38376053 1.5774702 91.3779339 -0.078125 91.37109375 C-1.25614433 91.36942451 -1.25614433 91.36942451 -2.45796204 91.36772156 C-7.94250587 91.31921288 -7.94250587 91.31921288 -9.05859375 90.203125 C-9.15909589 87.43911092 -9.1947545 84.70005274 -9.18798828 81.93554688 C-9.1897406 81.06893936 -9.19149292 80.20233185 -9.19329834 79.3094635 C-9.197718 76.43024727 -9.19477847 73.55109191 -9.19140625 70.671875 C-9.19207926 68.68029773 -9.19304925 66.68872054 -9.19430542 64.69714355 C-9.19578255 60.51732605 -9.19362736 56.33752987 -9.18896484 52.15771484 C-9.18326755 46.78709974 -9.18654648 41.4165346 -9.19253731 36.04592133 C-9.19614252 31.9316978 -9.19500452 27.81748621 -9.19240952 23.70326233 C-9.19174014 21.72241714 -9.19256905 19.74157088 -9.19488907 17.76072693 C-9.19741494 14.99735624 -9.19357593 12.23406766 -9.18798828 9.47070312 C-9.19001251 8.64365372 -9.19203674 7.81660431 -9.19412231 6.9644928 C-9.16449079 -0.90400028 -7.14820689 0.03822837 0 0 Z " fill="#3562CB" transform="translate(19.05859375,44.796875)"/>
<path d="M0 0 C0.97130859 0.00322266 1.94261719 0.00644531 2.94335938 0.00976562 C3.91080078 -0.00634766 4.87824219 -0.02246094 5.875 -0.0390625 C6.80376953 -0.03970703 7.73253906 -0.04035156 8.68945312 -0.04101562 C9.54079834 -0.04399658 10.39214355 -0.04697754 11.26928711 -0.05004883 C14.00998003 0.40618485 14.8363978 1.13887802 16.50585938 3.32226562 C17.75195312 6.40429688 17.75195312 6.40429688 18.94335938 10.13476562 C19.26312744 11.12585327 19.26312744 11.12585327 19.58935547 12.13696289 C21.37044442 17.71996618 22.975825 23.35121003 24.51367188 29.00585938 C25.43859755 32.09744164 26.53604802 35.08082806 27.68945312 38.09301758 C29.60634739 43.32721659 31.16920903 48.68867056 32.8125 54.01367188 C34.51802744 59.46072386 36.43191647 64.74543341 38.59350586 70.02734375 C39.8520592 73.19309204 40.85920941 76.36476788 41.81835938 79.63476562 C42.16511719 80.78589844 42.511875 81.93703125 42.86914062 83.12304688 C43.50585938 86.32226562 43.50585938 86.32226562 42.50585938 91.32226562 C36.56585938 91.32226562 30.62585938 91.32226562 24.50585938 91.32226562 C21.24340381 84.57985746 20.0673281 80.12960925 18.50585938 72.32226562 C3.16085937 72.81726563 3.16085937 72.81726563 -12.49414062 73.32226562 C-14.05654062 78.49571302 -14.05654062 78.49571302 -15.60498047 83.67333984 C-17.2719184 89.1000434 -17.2719184 89.1000434 -19.49414062 91.32226562 C-22.38546239 91.49405614 -25.16856127 91.55456033 -28.05664062 91.50976562 C-28.85005859 91.50912109 -29.64347656 91.50847656 -30.4609375 91.5078125 C-36.35388541 91.46252084 -36.35388541 91.46252084 -37.49414062 90.32226562 C-37.89918536 86.06929595 -37.11480996 83.40647983 -35.40332031 79.5703125 C-33.40844211 74.63775652 -32.01885677 69.47766148 -30.49414062 64.38476562 C-28.35681665 57.26972661 -26.15856263 50.25706264 -23.49414062 43.32226562 C-22.52725171 40.51937036 -21.60494182 37.70227497 -20.68164062 34.88476562 C-18.3702971 27.88628695 -15.97288121 20.92327138 -13.4987793 13.98071289 C-12.43202176 10.9865059 -11.3930887 7.99799452 -10.44726562 4.96289062 C-8.41293834 -0.67319644 -5.29934014 0.0405092 0 0 Z " fill="#373737" transform="translate(283.494140625,44.677734375)"/>
<path d="M0 0 C3.98166418 3.41285501 7.27239559 7.54479119 9.625 12.25 C9.69496014 13.95702735 9.70940154 15.66668003 9.6875 17.375 C9.67847656 18.28507812 9.66945313 19.19515625 9.66015625 20.1328125 C9.64855469 20.83148438 9.63695312 21.53015625 9.625 22.25 C6.31505287 23.90497356 2.63377 23.35084335 -1 23.3125 C-1.80179687 23.30798828 -2.60359375 23.30347656 -3.4296875 23.29882812 C-5.41149006 23.28703168 -7.39325433 23.26909605 -9.375 23.25 C-9.63031494 22.66645752 -9.88562988 22.08291504 -10.14868164 21.48168945 C-11.63189843 18.16376954 -12.88462931 15.68588506 -15.625 13.25 C-19.31266486 11.90903096 -22.49639025 11.65449628 -26.375 12.25 C-30.12047604 13.97967713 -30.12047604 13.97967713 -32.375 17.25 C-32.76355801 20.74702205 -32.6437462 22.73693908 -31 25.875 C-25.50553598 30.84618173 -18.33715785 32.2796034 -11.3125 34.125 C-5.07722848 35.87168844 -0.27524363 38.001118 4.625 42.25 C5.24503906 42.7553125 5.86507812 43.260625 6.50390625 43.78125 C10.94949589 48.31967098 11.20254188 53.11840787 11.25 59.1875 C11.07233306 68.5506426 8.99392016 75.2141772 2.625 82.25 C-0.28515625 84.015625 -0.28515625 84.015625 -3.4375 85.5 C-4.48035156 86.00015625 -5.52320313 86.5003125 -6.59765625 87.015625 C-15.99953381 91.19423725 -29.87037973 90.7724037 -39.4453125 87.14453125 C-46.64125858 83.80875867 -50.3269173 78.92989404 -54.375 72.25 C-55.68265478 68.32703567 -55.5721417 65.38997567 -55.375 61.25 C-53.375 59.25 -53.375 59.25 -51.49560547 59.02294922 C-50.38016357 59.03865967 -50.38016357 59.03865967 -49.2421875 59.0546875 C-48.43652344 59.06113281 -47.63085938 59.06757812 -46.80078125 59.07421875 C-45.53814453 59.09935547 -45.53814453 59.09935547 -44.25 59.125 C-43.40050781 59.13402344 -42.55101562 59.14304687 -41.67578125 59.15234375 C-39.57540116 59.17594353 -37.47516556 59.21181517 -35.375 59.25 C-35.12105469 59.86488281 -34.86710937 60.47976562 -34.60546875 61.11328125 C-34.26128906 61.92152344 -33.91710937 62.72976562 -33.5625 63.5625 C-33.22605469 64.36300781 -32.88960938 65.16351563 -32.54296875 65.98828125 C-31.32942444 68.33825502 -30.52777931 69.71438315 -28.375 71.25 C-23.08302705 72.08676495 -18.03970457 71.98631164 -13.125 69.8125 C-10.53324564 66.01743111 -11.01903512 62.6893827 -11.375 58.25 C-17.56843317 54.52567843 -23.69424 51.89719758 -30.5625 49.6875 C-40.86283923 46.37200619 -47.95247134 42.85902087 -53.1875 32.75 C-55.52852583 25.75383084 -55.9071743 16.6940231 -52.875 9.875 C-48.4153266 2.63385783 -42.74211352 -2.58254725 -34.55859375 -5.125 C-22.27028998 -7.53742773 -11.10586298 -5.75859562 0 0 Z " fill="#373737" transform="translate(387.375,48.75)"/>
<path d="M0 0 C1.05764557 -0.00307663 2.11529114 -0.00615326 3.20498657 -0.00932312 C4.34567596 -0.0021376 5.48636536 0.00504791 6.66162109 0.01245117 C8.41628189 0.0131385 8.41628189 0.0131385 10.20639038 0.01383972 C12.67943333 0.01686199 15.15247438 0.02474752 17.62548828 0.03710938 C21.42666303 0.05537957 25.22759451 0.05761898 29.02880859 0.05737305 C31.42724822 0.0622876 33.82568618 0.06811564 36.22412109 0.07495117 C37.36885895 0.076064 38.5135968 0.07717682 39.69302368 0.07832336 C41.27003555 0.08789314 41.27003555 0.08789314 42.87890625 0.09765625 C43.80917633 0.10146805 44.73944641 0.10527985 45.69790649 0.10920715 C47.81005859 0.24291992 47.81005859 0.24291992 48.81005859 1.24291992 C48.90987073 3.92023372 48.94885735 6.56596167 48.93505859 9.24291992 C48.94085938 10.36827148 48.94085938 10.36827148 48.94677734 11.51635742 C48.93666913 17.11630939 48.93666913 17.11630939 47.81005859 18.24291992 C45.21646538 18.33143521 42.64966168 18.35817937 40.05615234 18.34057617 C39.28070572 18.33916122 38.50525909 18.33774628 37.70631409 18.33628845 C35.22002365 18.33067338 32.73382199 18.31811839 30.24755859 18.30541992 C28.56591927 18.30040686 26.88427853 18.29584362 25.20263672 18.29174805 C21.0717153 18.28154824 16.94098678 18.26197597 12.81005859 18.24291992 C12.81005859 23.85291992 12.81005859 29.46291992 12.81005859 35.24291992 C15.02466797 35.2197168 17.23927734 35.19651367 19.52099609 35.17260742 C21.6622663 35.15701678 23.80353023 35.14486872 25.94482422 35.13305664 C27.43476179 35.12298949 28.92467957 35.10933475 30.41455078 35.09204102 C32.55424887 35.06782339 34.69368612 35.05644428 36.83349609 35.04760742 C38.12175293 35.03713379 39.41000977 35.02666016 40.73730469 35.01586914 C43.81005859 35.24291992 43.81005859 35.24291992 45.81005859 37.24291992 C46.07568359 40.43041992 46.07568359 40.43041992 46.06005859 44.24291992 C46.06779297 46.13010742 46.06779297 46.13010742 46.07568359 48.05541992 C45.81005859 51.24291992 45.81005859 51.24291992 43.81005859 53.24291992 C40.73730469 53.4699707 40.73730469 53.4699707 36.83349609 53.43823242 C36.1482486 53.43540253 35.4630011 53.43257263 34.75698853 53.42965698 C32.56616832 53.41845274 30.37575544 53.39334851 28.18505859 53.36791992 C26.70068949 53.3578904 25.21631399 53.3487645 23.73193359 53.34057617 C20.09102504 53.32021315 16.45099828 53.28106714 12.81005859 53.24291992 C12.81005859 59.84291992 12.81005859 66.44291992 12.81005859 73.24291992 C15.39720703 73.23131836 17.98435547 73.2197168 20.64990234 73.20776367 C23.14526242 73.1999733 25.64062117 73.19389643 28.13598633 73.18798828 C29.87525027 73.18294788 31.61450996 73.17611562 33.35375977 73.16748047 C35.84831796 73.155402 38.34282033 73.14968884 40.83740234 73.14526367 C41.61969711 73.14010239 42.40199188 73.1349411 43.20799255 73.12962341 C45.07572974 73.12942766 46.94335064 73.18092298 48.81005859 73.24291992 C50.79125215 75.22411348 49.9950627 78.97737057 49.99755859 81.68041992 C50.00980469 82.37458008 50.02205078 83.06874023 50.03466797 83.78393555 C50.03995701 85.60512893 49.93175067 87.42578912 49.81005859 89.24291992 C47.23446732 91.8185112 46.2368918 91.49570671 42.65771484 91.50170898 C41.58320068 91.50801331 40.50868652 91.51431763 39.40161133 91.52081299 C38.23702393 91.51676453 37.07243652 91.51271606 35.87255859 91.50854492 C34.68154541 91.51045837 33.49053223 91.51237183 32.26342773 91.51434326 C29.74153431 91.51570622 27.21963391 91.51200208 24.69775391 91.50366211 C20.82617511 91.49296445 16.95506037 91.50355398 13.08349609 91.51635742 C10.63818256 91.51503585 8.19286932 91.5124735 5.74755859 91.50854492 C4.00067749 91.51461761 4.00067749 91.51461761 2.21850586 91.52081299 C0.60673462 91.51135651 0.60673462 91.51135651 -1.03759766 91.50170898 C-2.46084351 91.4993222 -2.46084351 91.4993222 -3.9128418 91.49688721 C-6.18994141 91.24291992 -6.18994141 91.24291992 -8.18994141 89.24291992 C-8.39377791 86.48291276 -8.47311762 83.82282919 -8.46459961 81.0612793 C-8.46971054 80.21563919 -8.47482147 79.36999908 -8.48008728 78.49873352 C-8.49402354 75.69464097 -8.49302366 72.89079305 -8.49072266 70.08666992 C-8.49460706 68.1437572 -8.49894119 66.20084533 -8.50370789 64.25793457 C-8.51117855 60.18242644 -8.51087247 56.10700493 -8.50561523 52.03149414 C-8.49981613 46.79876966 -8.51675816 41.56639861 -8.53995991 36.3337326 C-8.5546627 32.32067783 -8.55557374 28.30770889 -8.55245018 24.29463196 C-8.55296502 22.36484578 -8.55823315 20.43505499 -8.5682621 18.5052948 C-8.58054401 15.81148019 -8.57388512 13.11836327 -8.56225586 10.42456055 C-8.5698996 9.62137894 -8.57754333 8.81819733 -8.5854187 7.99067688 C-8.56416321 5.77282715 -8.56416321 5.77282715 -8.18994141 2.24291992 C-4.87237389 0.03120825 -3.85952403 -0.00590205 0 0 Z " fill="#363636" transform="translate(188.18994140625,44.757080078125)"/>
<path d="M0 0 C2.97 0 5.94 0 9 0 C10.86388403 1.86388403 10.16681425 4.98245301 10.19287109 7.47241211 C10.20513733 8.48729202 10.20513733 8.48729202 10.21765137 9.52267456 C10.24256867 11.77422192 10.25904669 14.02570548 10.2734375 16.27734375 C10.27876118 17.0472571 10.28408485 17.81717045 10.28956985 18.61041451 C10.31634226 22.69379812 10.33569483 26.77715088 10.35009766 30.8605957 C10.36666073 35.06034521 10.41135464 39.25929691 10.4624691 43.45874691 C10.49631102 46.70092048 10.50769407 49.9429098 10.51332474 53.18524361 C10.52000195 54.73167504 10.53513115 56.27809588 10.55921555 57.82435417 C10.69278733 66.92711902 10.20018045 74.16905052 5 82 C3.948125 83.6396875 3.948125 83.6396875 2.875 85.3125 C-3.22071169 91.01066528 -9.75924913 93.30019687 -18.0625 93.5625 C-26.52748307 93.20130269 -33.05466018 91.49929689 -38.9375 85.1875 C-45.26643335 77.64565068 -45.55913882 69.8829358 -45.5559082 60.45922852 C-45.56243527 58.33358132 -45.61689361 56.21270632 -45.67382812 54.08789062 C-45.78676885 44.99904729 -44.34910243 37.61628702 -39 30 C-31.95870377 23.14419372 -25.24081694 21.4869061 -15.53515625 21.609375 C-10.63452224 22.15088152 -6.71749895 23.72528008 -3 27 C-2.505 28.485 -2.505 28.485 -2 30 C-1.34 30 -0.68 30 0 30 C0 20.1 0 10.2 0 0 Z " fill="#305ECB" transform="translate(154,45)"/>
<path d="M0 0 C-2.702549 1.80169933 -5.23860243 3.10238559 -8.1875 4.4375 C-9.08855469 4.84871094 -9.98960937 5.25992187 -10.91796875 5.68359375 C-13.23916845 6.67503139 -15.52343565 7.54486461 -17.8984375 8.3828125 C-22.07874199 9.93479071 -25.69691144 12.03034207 -29.4375 14.4375 C-30.11852783 14.87070557 -30.79955566 15.30391113 -31.5012207 15.75024414 C-47.37493946 25.95050778 -61.79671465 37.24044832 -75.7265625 49.953125 C-77.8402704 51.85618847 -80.00493952 53.67701845 -82.1875 55.5 C-85.7493823 58.58363357 -88.4142226 62.04160353 -91.21875 65.80859375 C-93.54034835 68.66477067 -96.1964963 70.89291358 -99.015625 73.2421875 C-101.76512924 75.67777197 -104.08565468 78.40814273 -106.46484375 81.19921875 C-108.21508832 83.25230462 -109.9820489 85.20626569 -112 87 C-112.66 87 -113.32 87 -114 87 C-114 86.01 -114 85.02 -114 84 C-115.32 83.34 -116.64 82.68 -118 82 C-118 81.01 -118 80.02 -118 79 C-118.66 79 -119.32 79 -120 79 C-120.12375 78.360625 -120.2475 77.72125 -120.375 77.0625 C-120.58125 76.381875 -120.7875 75.70125 -121 75 C-121.66 74.67 -122.32 74.34 -123 74 C-123 73.34 -123 72.68 -123 72 C-124.485 71.505 -124.485 71.505 -126 71 C-126.3721042 69.67696283 -126.70630173 68.34262065 -127 67 C-127.66 66.67 -128.32 66.34 -129 66 C-129 65.01 -129 64.02 -129 63 C-130.485 62.505 -130.485 62.505 -132 62 C-136 57.54285714 -136 57.54285714 -136 55 C-136.66 55 -137.32 55 -138 55 C-140.04169485 52.09451118 -141 50.59857954 -141 47 C-141.99 46.67 -142.98 46.34 -144 46 C-145.60546875 44.2578125 -145.60546875 44.2578125 -147.1875 42.125 C-147.71730469 41.42632812 -148.24710937 40.72765625 -148.79296875 40.0078125 C-150 38 -150 38 -150 35 C-146.88626628 36.49920512 -143.87771795 38.08152136 -141 40 C-141 40.66 -141 41.32 -141 42 C-140.46375 42.268125 -139.9275 42.53625 -139.375 42.8125 C-138.199375 43.4003125 -138.199375 43.4003125 -137 44 C-136.13375 44.391875 -135.2675 44.78375 -134.375 45.1875 C-129.66451726 47.7172037 -125.13914064 50.60525027 -121 54 C-121 54.66 -121 55.32 -121 56 C-120.319375 56.268125 -119.63875 56.53625 -118.9375 56.8125 C-116.70738071 57.71403758 -114.51204223 58.65407236 -112.3125 59.625 C-109.28989306 61.12779256 -109.28989306 61.12779256 -107 61 C-107 60.34 -107 59.68 -107 59 C-105.25998065 57.44038399 -103.45696803 55.95050425 -101.625 54.5 C-97.68517459 51.39240862 -97.68517459 51.39240862 -94 48 C-96.93703384 48.62936439 -99.33788628 49.62420173 -102 51 C-101.13026903 47.94533514 -100.1177029 44.97290649 -99 42 C-98.55914062 40.82244141 -98.55914062 40.82244141 -98.109375 39.62109375 C-96.94710168 37.19679978 -96.09634176 35.7015761 -94 34 C-89.91917147 33.32341355 -86.09659924 33.52957712 -82 34 C-82.165 34.639375 -82.33 35.27875 -82.5 35.9375 C-83.03926667 37.80826821 -83.03926667 37.80826821 -83 39 C-82.38125 38.505 -81.7625 38.01 -81.125 37.5 C-79 36 -79 36 -77 36 C-77 35.34 -77 34.68 -77 34 C-75.59375 32.84375 -75.59375 32.84375 -73.5 31.5 C-72.2625 30.70529297 -72.2625 30.70529297 -71 29.89453125 C-70.01 29.26933594 -69.02 28.64414062 -68 28 C-66.81226991 27.2334293 -65.62478455 26.46647933 -64.4375 25.69921875 C-45.91740953 13.82273912 -22.82222307 -0.60146415 0 0 Z " fill="#C0DFE5" transform="translate(554,11)"/>
<path d="M0 0 C5.26428498 2.3198544 7.3155097 5.15205423 9.63671875 10.3515625 C11.15718182 15.30787718 10.90064226 20.39966991 10.94921875 25.5390625 C10.97822266 26.54259766 11.00722656 27.54613281 11.03710938 28.58007812 C11.09816744 35.79902 10.20393385 42.45146212 5.15332031 47.97338867 C0.13305652 52.35486504 -4.23260362 52.70494456 -10.63671875 52.62890625 C-14.51281614 52.23463273 -16.52468534 50.98245627 -19.36328125 48.3515625 C-24.91525107 41.14900706 -24.59967672 34.96681926 -24.67578125 26.1640625 C-24.70478516 25.06513672 -24.73378906 23.96621094 -24.76367188 22.83398438 C-24.81742176 15.90024984 -24.13996007 10.29269225 -20.36328125 4.3515625 C-14.42317986 -1.30567692 -7.91671847 -2.17219052 0 0 Z " fill="#FAFBFD" transform="translate(143.36328125,76.6484375)"/>
<path d="M0 0 C4.640625 -0.12375 9.28125 -0.2475 14.0625 -0.375 C16.23791382 -0.45693604 16.23791382 -0.45693604 18.45727539 -0.54052734 C29.11714609 -0.6782269 29.11714609 -0.6782269 33.37109375 2.8984375 C37.42052916 7.16502688 37.24544597 11.13078876 37.3125 16.8125 C37.34150391 17.62009766 37.37050781 18.42769531 37.40039062 19.25976562 C37.44146324 23.11743157 37.2996323 25.45326353 35.41796875 28.88671875 C28.44260135 34.98312225 21.42793635 34.37466964 12.5625 34.1875 C8.416875 34.125625 4.27125 34.06375 0 34 C0 22.78 0 11.56 0 0 Z " fill="#FDFDFE" transform="translate(21,93)"/>
<path d="M0 0 C3.70133263 3.37474446 6.35687559 6.88534255 9.0703125 11.08203125 C11.61193779 14.92533912 14.27302494 18.67870893 16.9375 22.4375 C17.45932861 23.17444092 17.98115723 23.91138184 18.51879883 24.6706543 C19.54148656 26.11487365 20.56434932 27.55896908 21.58740234 29.00292969 C24.4079495 32.99049895 27.20500189 36.99449214 30 41 C34.28164387 39.39182276 36.9042987 36.13244937 39.875 32.8125 C40.40512695 32.22895752 40.93525391 31.64541504 41.48144531 31.04418945 C45.06041289 27.09071713 48.57651257 23.08916554 52 19 C52.495 19.99 52.495 19.99 53 21 C51.86614441 22.62102548 50.72966946 24.2402653 49.58203125 25.8515625 C41.85222655 37.24939785 41.92842991 48.3526335 42.02392578 61.64453125 C42.03119186 62.74438354 42.03119186 62.74438354 42.03860474 63.86645508 C42.06127267 65.89041535 42.10997111 67.91403503 42.16015625 69.9375 C42 73 42 73 40 75 C37.12657939 75.19856972 34.37138012 75.27828946 31.5 75.25 C30.32244141 75.26160156 30.32244141 75.26160156 29.12109375 75.2734375 C23.25330787 75.25330787 23.25330787 75.25330787 21 73 C20.87158203 69.90917969 20.87158203 69.90917969 21.0078125 65.921875 C21.36389549 47.4257547 20.44187023 33.92612031 9.54052734 18.24951172 C7.22615513 14.87001479 5.24933257 11.32120233 3.25 7.75 C2.29867188 6.13351563 2.29867188 6.13351563 1.328125 4.484375 C0 2 0 2 0 0 Z " fill="#3A3A3A" transform="translate(410,61)"/>
<path d="M0 0 C6.496875 -0.12375 6.496875 -0.12375 13.125 -0.25 C15.15744873 -0.30462402 15.15744873 -0.30462402 17.23095703 -0.36035156 C28.23304842 -0.46199508 28.23304842 -0.46199508 33 4 C33.61230469 4.42410156 34.22460938 4.84820312 34.85546875 5.28515625 C36.73740777 8.10485328 36.39082363 11.16983821 36.3125 14.4375 C36.30863281 15.75621094 36.30476563 17.07492188 36.30078125 18.43359375 C35.87204918 23.51713115 35.87204918 23.51713115 34 26 C29.97985791 28.96566365 27.11424538 29.35833804 22.16796875 29.29296875 C21.00289795 29.28547607 19.83782715 29.2779834 18.63745117 29.27026367 C17.16896729 29.24295166 15.7004834 29.21563965 14.1875 29.1875 C9.505625 29.125625 4.82375 29.06375 0 29 C0 19.43 0 9.86 0 0 Z " fill="#FCFDFE" transform="translate(21,54)"/>
<path d="M0 0 C2.97 0 5.94 0 9 0 C10.81415883 1.81415883 10.12770573 4.62445701 10.12939453 7.06445312 C10.13254669 8.36249878 10.13569885 9.66054443 10.13894653 10.9979248 C10.13715675 12.42570021 10.1351058 13.85347531 10.1328125 15.28125 C10.13348558 16.73474138 10.13445564 18.18823264 10.13571167 19.64172363 C10.13718846 22.69166127 10.1350347 25.74156966 10.13037109 28.79150391 C10.1246738 32.70930559 10.12795291 36.62703878 10.13394356 40.54483795 C10.13754969 43.54730754 10.13641035 46.54976077 10.13381577 49.55223083 C10.13314664 50.99718738 10.13397442 52.44214539 10.13629532 53.88710022 C10.13882265 55.90324883 10.13429052 57.91940262 10.12939453 59.93554688 C10.12859894 61.08502808 10.12780334 62.23450928 10.12698364 63.41882324 C10 66 10 66 9 67 C6.03 67 3.06 67 0 67 C0 44.89 0 22.78 0 0 Z " fill="#2658CE" transform="translate(84,69)"/>
<path d="M0 0 C2 1 2 1 2.94555664 3.29736328 C3.26387451 4.29493652 3.58219238 5.29250977 3.91015625 6.3203125 C4.26013672 7.4134375 4.61011719 8.5065625 4.97070312 9.6328125 C5.33099609 10.78523438 5.69128906 11.93765625 6.0625 13.125 C6.42666016 14.25421875 6.79082031 15.3834375 7.16601562 16.546875 C8.94061523 22.1494926 10.15966323 27.11764258 11 33 C4.4 33 -2.2 33 -9 33 C-7.8749004 23.99920319 -7.8749004 23.99920319 -6.9140625 21.03515625 C-6.60311646 20.05869141 -6.60311646 20.05869141 -6.28588867 19.0625 C-6.06779541 18.4025 -5.84970215 17.7425 -5.625 17.0625 C-5.29109253 16.02416016 -5.29109253 16.02416016 -4.95043945 14.96484375 C-4.30800879 12.97393783 -3.65593206 10.98649259 -3 9 C-2.67128906 7.99839844 -2.34257812 6.99679688 -2.00390625 5.96484375 C-1.34441094 3.97373589 -0.67391436 1.9862739 0 0 Z " fill="#EFEFEF" transform="translate(285,68)"/>
<path d="M0 0 C2.90351802 0.06522726 2.90351802 0.06522726 5.375 -0.3125 C9.16350666 0.1385127 10.55884069 2.21010364 13 5 C13.66 3.35 14.32 1.7 15 0 C16.32 0 17.64 0 19 0 C19 4.62 19 9.24 19 14 C18.01 14 17.02 14 16 14 C15.67 11.36 15.34 8.72 15 6 C13.68 7.32 12.36 8.64 11 10 C10.01 8.68 9.02 7.36 8 6 C7.67 8.64 7.34 11.28 7 14 C6.236875 13.814375 5.47375 13.62875 4.6875 13.4375 C1.91032625 12.77180827 1.91032625 12.77180827 -1 14 C-4.5 14.3125 -4.5 14.3125 -8 14 C-10.62541413 11.79803976 -10.9445448 10.38026421 -11.4375 7 C-11 4 -11 4 -9.4375 1.625 C-6.15513007 -0.56324662 -3.87377866 -0.28172936 0 0 Z " fill="#F3F3F3" transform="translate(104,158)"/>
<path d="M0 0 C3.63 0 7.26 0 11 0 C11.33 0.99 11.66 1.98 12 3 C12.33 2.01 12.66 1.02 13 0 C14.60332791 -0.08121924 16.20784026 -0.13929134 17.8125 -0.1875 C19.15248047 -0.23970703 19.15248047 -0.23970703 20.51953125 -0.29296875 C23 0 23 0 24.8359375 1.3515625 C26 3 26 3 25.8125 5.5625 C25 8 25 8 23 10 C19.875 10.125 19.875 10.125 17 10 C17 11.32 17 12.64 17 14 C11.39 14 5.78 14 0 14 C0 9.38 0 4.76 0 0 Z M4 4 C4 4.33 4 4.66 4 5 C6.31 5 8.62 5 11 5 C11 4.67 11 4.34 11 4 C8.69 4 6.38 4 4 4 Z " fill="#C3C3C4" transform="translate(58,158)"/>
<path d="M0 0 C2.97 0 5.94 0 9 0 C10.81415883 1.81415883 10.12770573 4.62445701 10.12939453 7.06445312 C10.13254669 8.36249878 10.13569885 9.66054443 10.13894653 10.9979248 C10.13715675 12.42570021 10.1351058 13.85347531 10.1328125 15.28125 C10.13348558 16.73474138 10.13445564 18.18823264 10.13571167 19.64172363 C10.13718846 22.69166127 10.1350347 25.74156966 10.13037109 28.79150391 C10.1246738 32.70930559 10.12795291 36.62703878 10.13394356 40.54483795 C10.13754969 43.54730754 10.13641035 46.54976077 10.13381577 49.55223083 C10.13314664 50.99718738 10.13397442 52.44214539 10.13629532 53.88710022 C10.13882265 55.90324883 10.13429052 57.91940262 10.12939453 59.93554688 C10.12859894 61.08502808 10.12780334 62.23450928 10.12698364 63.41882324 C10 66 10 66 9 67 C6.03 67 3.06 67 0 67 C0 44.89 0 22.78 0 0 Z M1 1 C1 22.45 1 43.9 1 66 C4.465 65.505 4.465 65.505 8 65 C8 43.88 8 22.76 8 1 C5.69 1 3.38 1 1 1 Z " fill="#3E65BE" transform="translate(84,69)"/>
<path d="M0 0 C0.99 0 1.98 0 3 0 C4.31640625 1.49609375 4.31640625 1.49609375 5.5625 3.4375 C7.30536929 6.23259721 7.30536929 6.23259721 10 8 C10 8.99 10 9.98 10 11 C10.99 11.33 11.98 11.66 13 12 C13.3721042 13.32303717 13.70630173 14.65737935 14 16 C14.66 16.33 15.32 16.66 16 17 C16 17.66 16 18.32 16 19 C16.99 19.33 17.98 19.66 19 20 C19 21.32 19 22.64 19 24 C19.66 24 20.32 24 21 24 C21.28875 24.639375 21.5775 25.27875 21.875 25.9375 C22.82823451 28.15206079 22.82823451 28.15206079 25 29 C25 29.99 25 30.98 25 32 C25.4846875 31.57589844 25.969375 31.15179688 26.46875 30.71484375 C27.87647552 29.48308392 29.28541348 28.25270889 30.6953125 27.0234375 C32.22004106 25.68477751 33.73587795 24.33591502 35.2421875 22.9765625 C36.29792969 22.02910156 36.29792969 22.02910156 37.375 21.0625 C38.02210938 20.47597656 38.66921875 19.88945313 39.3359375 19.28515625 C41 18 41 18 43 18 C41.66000502 21.006818 40.20154709 22.99762609 37.8125 25.25 C33.97039818 28.97102718 30.47298736 32.93586586 27 37 C23.55916213 35.85305404 23.18086394 35.1988862 21.25 32.2734375 C20.72881592 31.49540771 20.20763184 30.71737793 19.6706543 29.91577148 C19.11933838 29.07731689 18.56802246 28.2388623 18 27.375 C13.26203075 20.28784639 8.40680647 13.33711699 3.25195312 6.54638672 C0 2.20841776 0 2.20841776 0 0 Z " fill="#EDEFEE" transform="translate(415,66)"/>
<path d="M0 0 C2.97 0 5.94 0 9 0 C10 1 10 1 10.12025452 3.81568909 C10.1169236 5.70431923 10.1169236 5.70431923 10.11352539 7.63110352 C10.11367142 8.32375305 10.11381744 9.01640259 10.1139679 9.7300415 C10.11326874 12.02969446 10.10547628 14.32926737 10.09765625 16.62890625 C10.09579208 18.21931412 10.09436817 19.80972257 10.09336853 21.40013123 C10.08954329 25.5939593 10.07971295 29.78775295 10.06866455 33.98156738 C10.05845057 38.25788914 10.05387094 42.53421644 10.04882812 46.81054688 C10.03809069 55.20704708 10.02101419 63.60351926 10 72 C9.01 72.495 9.01 72.495 8 73 C8 49.57 8 26.14 8 2 C5.69 2 3.38 2 1 2 C1 11.57 1 21.14 1 31 C0.34 30.67 -0.32 30.34 -1 30 C-0.67 20.1 -0.34 10.2 0 0 Z " fill="#5274C5" transform="translate(154,45)"/>
<path d="M0 0 C3.91333191 0.62613311 5.51864935 1.51036249 8.125 4.5 C8.6875 8.0625 8.6875 8.0625 8.125 11.5 C5.80310344 14.37915173 4.24286923 14.48552483 0.5625 14.9375 C-2.875 14.5 -2.875 14.5 -4.8125 12.875 C-6.17725246 9.82437685 -6.28907022 7.81256176 -5.875 4.5 C-4.3307374 1.23989007 -3.58085825 0.62275796 0 0 Z " fill="#545454" transform="translate(277.875,157.5)"/>
<path d="M0 0 C7.06163974 -0.47875524 7.06163974 -0.47875524 11.0625 1.5625 C13 4 13 4 13.0625 7.5625 C12 11 12 11 10.4375 12.9375 C6.8556202 14.49883222 3.89006898 14.19450345 0 14 C0 9.38 0 4.76 0 0 Z " fill="#5C5C5C" transform="translate(148,158)"/>
<path d="M0 0 C2.375 1 2.375 1 4 3 C4.66300779 6.57577233 4.65930485 9.75895557 2.9375 13 C-0.13215135 14.58433618 -2.61681143 14.36248449 -6 14 C-7.9375 13 -7.9375 13 -9 11 C-9.5327028 7.39862897 -9.68723346 4.22174836 -7.875 1 C-5.08970454 -0.48549091 -3.10747489 -0.38050713 0 0 Z " fill="#585858" transform="translate(252,158)"/>
<path d="M0 0 C7.25581395 -0.48372093 7.25581395 -0.48372093 10.5 1.625 C12.45562482 4.72140596 12.60024477 6.39853135 12 10 C10.5 12.375 10.5 12.375 8 14 C5.24150058 14.32638734 2.79515088 14.18634339 0 14 C0 9.38 0 4.76 0 0 Z " fill="#474747" transform="translate(420,158)"/>
<path d="M0 0 C1.890625 0.24609375 1.890625 0.24609375 4 1 C5.44963687 3.55850089 6.10400905 6.1776285 7 9 C8.32 6.03 9.64 3.06 11 0 C16.61 0 22.22 0 28 0 C28 0.99 28 1.98 28 3 C26.68 3 25.36 3 24 3 C24 6.63 24 10.26 24 14 C23.01 14 22.02 14 21 14 C21 10.37 21 6.74 21 3 C18.12586875 2.66602213 18.12586875 2.66602213 15 3 C12.52793389 5.38682245 11.59857248 7.6479941 11 11 C10.34 11 9.68 11 9 11 C9 11.66 9 12.32 9 13 C7.171875 12.80859375 7.171875 12.80859375 5 12 C3.515625 9.78515625 3.515625 9.78515625 2.25 7.0625 C1.82203125 6.16660156 1.3940625 5.27070313 0.953125 4.34765625 C0 2 0 2 0 0 Z " fill="#737373" transform="translate(359,158)"/>
<path d="M0 0 C0.99 0.66 1.98 1.32 3 2 C3.36328125 4.09375 3.36328125 4.09375 3.3125 6.5 C3.30863281 7.2940625 3.30476563 8.088125 3.30078125 8.90625 C3 11 3 11 1 13 C-0.875 13.265625 -0.875 13.265625 -3 13.25 C-3.70125 13.25515625 -4.4025 13.2603125 -5.125 13.265625 C-7 13 -7 13 -9 11 C-9.30078125 8.90625 -9.30078125 8.90625 -9.3125 6.5 C-9.32925781 5.7059375 -9.34601563 4.911875 -9.36328125 4.09375 C-9.18345703 3.05734375 -9.18345703 3.05734375 -9 2 C-5.53001271 -0.31332486 -4.07490752 -0.33957563 0 0 Z " fill="#2F5DCA" transform="translate(92,44)"/>
<path d="M0 0 C2.24893954 -0.10823773 4.49937575 -0.18569645 6.75 -0.25 C8.00296875 -0.29640625 9.2559375 -0.3428125 10.546875 -0.390625 C14 0 14 0 16.31640625 1.73046875 C17.97464907 3.96582624 19.1235369 5.99596043 20.1875 8.5625 C20.67283203 9.70912109 20.67283203 9.70912109 21.16796875 10.87890625 C21.83002216 12.56667622 22.42668663 14.28005989 23 16 C14.86508648 12.12261131 6.85702168 6.85499272 0 1 C0 0.67 0 0.34 0 0 Z " fill="#474647" transform="translate(410,45)"/>
<path d="M0 0 C1.65322266 0.01740234 1.65322266 0.01740234 3.33984375 0.03515625 C4.99693359 0.04869141 4.99693359 0.04869141 6.6875 0.0625 C7.54214844 0.07410156 8.39679688 0.08570313 9.27734375 0.09765625 C9.27734375 0.75765625 9.27734375 1.41765625 9.27734375 2.09765625 C7.26894624 3.78125357 5.25763793 5.35635761 3.15234375 6.91015625 C2.00297169 7.7695849 0.85453011 8.63025938 -0.29296875 9.4921875 C-0.85918945 9.91709473 -1.42541016 10.34200195 -2.00878906 10.77978516 C-4.64706912 12.80847971 -7.18268286 14.94755719 -9.72265625 17.09765625 C-10.05265625 16.43765625 -10.38265625 15.77765625 -10.72265625 15.09765625 C-9.67034476 12.67263675 -8.56880471 10.37258356 -7.34765625 8.03515625 C-7.01765625 7.38482422 -6.68765625 6.73449219 -6.34765625 6.06445312 C-3.3035215 0.11849073 -3.3035215 0.11849073 0 0 Z " fill="#474747" transform="translate(462.72265625,44.90234375)"/>
<path d="M0 0 C4 0 4 0 6.75 2.5 C7.86375 3.7375 7.86375 3.7375 9 5 C9.66 3.35 10.32 1.7 11 0 C12.32 0 13.64 0 15 0 C15 4.62 15 9.24 15 14 C14.01 14 13.02 14 12 14 C11.67 11.36 11.34 8.72 11 6 C9.68 7.32 8.36 8.64 7 10 C6.01 8.68 5.02 7.36 4 6 C3.67 8.64 3.34 11.28 3 14 C2.01 14 1.02 14 0 14 C0 9.38 0 4.76 0 0 Z " fill="#616061" transform="translate(108,158)"/>
<path d="M0 0 C1.60875 -0.061875 3.2175 -0.12375 4.875 -0.1875 C5.77992188 -0.22230469 6.68484375 -0.25710937 7.6171875 -0.29296875 C8.79667969 -0.14794922 8.79667969 -0.14794922 10 0 C12.1387261 3.20808915 12.47730962 4.27698497 12 8 C8.5647952 10.29013653 7.014669 10.17842973 3 10 C3 11.32 3 12.64 3 14 C2.01 14 1.02 14 0 14 C0 9.38 0 4.76 0 0 Z " fill="#797979" transform="translate(345,158)"/>
<path d="M0 0 C1.423125 -0.061875 2.84625 -0.12375 4.3125 -0.1875 C5.51326172 -0.23970703 5.51326172 -0.23970703 6.73828125 -0.29296875 C9 0 9 0 10.8046875 1.3515625 C12 3 12 3 11.8125 5.5625 C11 8 11 8 9 10 C5.875 10.125 5.875 10.125 3 10 C3 11.32 3 12.64 3 14 C2.01 14 1.02 14 0 14 C0 9.38 0 4.76 0 0 Z " fill="#5E5E5F" transform="translate(72,158)"/>
<path d="M0 0 C0.99 0 1.98 0 3 0 C4.38671875 1.53125 4.38671875 1.53125 5.6875 3.5 C6.12449219 4.1496875 6.56148437 4.799375 7.01171875 5.46875 C7.33785156 5.9740625 7.66398438 6.479375 8 7 C8.33 4.69 8.66 2.38 9 0 C9.99 0 10.98 0 12 0 C12 4.62 12 9.24 12 14 C8.24488276 12.12244138 7.11232859 11.37972575 5 8 C5 7.34 5 6.68 5 6 C4.34 6 3.68 6 3 6 C3 8.64 3 11.28 3 14 C2.01 14 1.02 14 0 14 C0 9.38 0 4.76 0 0 Z " fill="#606060" transform="translate(133,158)"/>
<path d="M0 0 C0.33 0.99 0.66 1.98 1 3 C-1.64 3.33 -4.28 3.66 -7 4 C-7.33 5.98 -7.66 7.96 -8 10 C-5.69 10.33 -3.38 10.66 -1 11 C-1 10.01 -1 9.02 -1 8 C-1.99 8 -2.98 8 -4 8 C-4 7.34 -4 6.68 -4 6 C-2.02 6 -0.04 6 2 6 C2.1875 8.875 2.1875 8.875 2 12 C-1.70415293 14.46943529 -3.62144505 14.46913089 -8 14 C-10.87915173 11.67810344 -10.98552483 10.11786923 -11.4375 6.4375 C-11 3 -11 3 -9.4375 1.0625 C-6.19917389 -0.34907805 -3.49186021 -0.20145347 0 0 Z " fill="#7B7B7B" transform="translate(300,158)"/>
<path d="M0 0 C-6.70243894 4.46829263 -14.45373516 7.2677317 -22 10 C-22.94875 10.4125 -23.8975 10.825 -24.875 11.25 C-25.57625 11.4975 -26.2775 11.745 -27 12 C-27.66 11.67 -28.32 11.34 -29 11 C-28.5625 8.6875 -28.5625 8.6875 -27 6 C-24.14435649 4.51038186 -21.10961508 3.79423069 -18 3 C-16.48986328 2.58041016 -16.48986328 2.58041016 -14.94921875 2.15234375 C-9.8144011 0.77751711 -5.34510054 -0.16629202 0 0 Z " fill="#B6C9EE" transform="translate(554,11)"/>
<path d="M0 0 C3.63 0 7.26 0 11 0 C11 0.99 11 1.98 11 3 C8.36 3 5.72 3 3 3 C3 3.99 3 4.98 3 6 C5.31 6 7.62 6 10 6 C10 6.66 10 7.32 10 8 C7.69 8 5.38 8 3 8 C3 9.32 3 10.64 3 12 C5.31 12 7.62 12 10 12 C10 12.66 10 13.32 10 14 C6.7 14 3.4 14 0 14 C0 9.38 0 4.76 0 0 Z " fill="#595959" transform="translate(311,158)"/>
<path d="M0 0 C0.99 0 1.98 0 3 0 C3 4.62 3 9.24 3 14 C2.34 14 1.68 14 1 14 C-4 8.52380952 -4 8.52380952 -4 6 C-4.66 6 -5.32 6 -6 6 C-6 8.64 -6 11.28 -6 14 C-6.66 14 -7.32 14 -8 14 C-8 9.71 -8 5.42 -8 1 C-3.70574125 2.07356469 -3.25259529 2.5084773 -1 6 C-0.67 4.02 -0.34 2.04 0 0 Z " fill="#5B5B5B" transform="translate(236,158)"/>
<path d="M0 0 C3.3 0 6.6 0 10 0 C10 0.99 10 1.98 10 3 C7.36 3 4.72 3 2 3 C2 3.99 2 4.98 2 6 C4.64 6 7.28 6 10 6 C10 6.66 10 7.32 10 8 C7.36 8 4.72 8 2 8 C2 9.32 2 10.64 2 12 C4.64 12 7.28 12 10 12 C10 12.66 10 13.32 10 14 C6.7 14 3.4 14 0 14 C0 9.38 0 4.76 0 0 Z " fill="#505050" transform="translate(183,158)"/>
<path d="M0 0 C3.5625 0.125 3.5625 0.125 5.5625 1.125 C5.5625 1.785 5.5625 2.445 5.5625 3.125 C3.2525 3.125 0.9425 3.125 -1.4375 3.125 C-1.7675 3.785 -2.0975 4.445 -2.4375 5.125 C-1.303125 5.269375 -0.16875 5.41375 1 5.5625 C4.5625 6.125 4.5625 6.125 5.5625 7.125 C5.75 9.5625 5.75 9.5625 5.5625 12.125 C3.5625 14.125 3.5625 14.125 -0.0625 14.25 C-1.17625 14.20875 -2.29 14.1675 -3.4375 14.125 C-4.0975 12.805 -4.7575 11.485 -5.4375 10.125 C-4.4475 10.125 -3.4575 10.125 -2.4375 10.125 C-2.4375 10.785 -2.4375 11.445 -2.4375 12.125 C-0.7875 11.795 0.8625 11.465 2.5625 11.125 C2.5625 10.465 2.5625 9.805 2.5625 9.125 C1.593125 8.815625 0.62375 8.50625 -0.375 8.1875 C-3.4375 7.125 -3.4375 7.125 -4.4375 6.125 C-4.5625 3.625 -4.5625 3.625 -4.4375 1.125 C-3.4375 0.125 -3.4375 0.125 0 0 Z " fill="#504F4F" transform="translate(330.4375,157.875)"/>
<path d="M0 0 C0.33 0.99 0.66 1.98 1 3 C-1.64 3.33 -4.28 3.66 -7 4 C-7 5.98 -7 7.96 -7 10 C-4.36 10.33 -1.72 10.66 1 11 C1 11.66 1 12.32 1 13 C-2.0832635 14.54163175 -4.60878099 14.29747535 -8 14 C-10.62541413 11.79803976 -10.9445448 10.38026421 -11.4375 7 C-11 4 -11 4 -9.4375 1.625 C-6.18317497 -0.54455002 -3.82869586 -0.29451507 0 0 Z " fill="#545454" transform="translate(104,158)"/>
<path d="M0 0 C0.33 0.99 0.66 1.98 1 3 C-1.64 3.33 -4.28 3.66 -7 4 C-7 5.98 -7 7.96 -7 10 C-4.36 10.33 -1.72 10.66 1 11 C1 11.66 1 12.32 1 13 C-2.0832635 14.54163175 -4.60878099 14.29747535 -8 14 C-10.62541413 11.79803976 -10.9445448 10.38026421 -11.4375 7 C-11 4 -11 4 -9.4375 1.625 C-6.18317497 -0.54455002 -3.82869586 -0.29451507 0 0 Z " fill="#555555" transform="translate(207,158)"/>
<path d="M0 0 C1.890625 0.24609375 1.890625 0.24609375 4 1 C5.44963687 3.55850089 6.10400905 6.1776285 7 9 C8.32 6.36 9.64 3.72 11 1 C11.99 1.33 12.98 1.66 14 2 C13.01 4.97 12.02 7.94 11 11 C10.34 11 9.68 11 9 11 C9 11.66 9 12.32 9 13 C7.171875 12.80859375 7.171875 12.80859375 5 12 C3.515625 9.78515625 3.515625 9.78515625 2.25 7.0625 C1.82203125 6.16660156 1.3940625 5.27070313 0.953125 4.34765625 C0 2 0 2 0 0 Z " fill="#535353" transform="translate(359,158)"/>
<path d="M0 0 C3.96 0 7.92 0 12 0 C12 0.99 12 1.98 12 3 C10.68 3 9.36 3 8 3 C8 6.63 8 10.26 8 14 C7.01 14 6.02 14 5 14 C5 10.37 5 6.74 5 3 C3.35 3 1.7 3 0 3 C0 2.01 0 1.02 0 0 Z " fill="#636363" transform="translate(405,158)"/>
<path d="M0 0 C0.66 0 1.32 0 2 0 C2 1.65 2 3.3 2 5 C4.31 5 6.62 5 9 5 C9 3.35 9 1.7 9 0 C9.66 0 10.32 0 11 0 C11 4.29 11 8.58 11 13 C10.34 13 9.68 13 9 13 C9 11.02 9 9.04 9 7 C6.69 7 4.38 7 2 7 C2 8.98 2 10.96 2 13 C1.34 13 0.68 13 0 13 C0 8.71 0 4.42 0 0 Z " fill="#464646" transform="translate(212,159)"/>
<path d="M0 0 C3.63 0 7.26 0 11 0 C11 0.99 11 1.98 11 3 C9.68 3 8.36 3 7 3 C7 6.63 7 10.26 7 14 C6.01 14 5.02 14 4 14 C4 10.37 4 6.74 4 3 C2.68 3 1.36 3 0 3 C0 2.01 0 1.02 0 0 Z " fill="#656565" transform="translate(169,158)"/>
<path d="M0 0 C3 0.125 3 0.125 4 1.125 C4.1875 4.0625 4.1875 4.0625 4 7.125 C3.34 7.785 2.68 8.445 2 9.125 C-2.55555556 8.56944444 -2.55555556 8.56944444 -4 7.125 C-4.125 4.125 -4.125 4.125 -4 1.125 C-3 0.125 -3 0.125 0 0 Z " fill="#EDEDED" transform="translate(279,160.875)"/>
<path d="M0 0 C2.5 0.25 2.5 0.25 4.5 2.25 C4.6875 4.8125 4.6875 4.8125 4.5 7.25 C3.5 8.25 3.5 8.25 0 8.375 C-3.5 8.25 -3.5 8.25 -4.5 7.25 C-4.6875 4.8125 -4.6875 4.8125 -4.5 2.25 C-2.5 0.25 -2.5 0.25 0 0 Z " fill="#EDEDED" transform="translate(249.5,160.75)"/>
<path d="M0 0 C2.97 0 5.94 0 9 0 C9 0.33 9 0.66 9 1 C6.69 1 4.38 1 2 1 C2 2.32 2 3.64 2 5 C4.31 5 6.62 5 9 5 C9 5.66 9 6.32 9 7 C6.69 7 4.38 7 2 7 C2 8.32 2 9.64 2 11 C4.31 11 6.62 11 9 11 C9 11.66 9 12.32 9 13 C6.03 13 3.06 13 0 13 C0 8.71 0 4.42 0 0 Z " fill="#3C3C3C" transform="translate(59,159)"/>
<path d="M0 0 C0.99 0 1.98 0 3 0 C3 3.63 3 7.26 3 11 C4.98 11 6.96 11 9 11 C9 11.99 9 12.98 9 14 C6.03 14 3.06 14 0 14 C0 9.38 0 4.76 0 0 Z " fill="#5D5D5D" transform="translate(260,158)"/>
<path d="M0 0 C1.32 0 2.64 0 4 0 C4 4.62 4 9.24 4 14 C2.68 14 1.36 14 0 14 C0 9.38 0 4.76 0 0 Z " fill="#858585" transform="translate(126,158)"/>
<path d="M0 0 C2.31 0.33 4.62 0.66 7 1 C7.04254356 2.99954746 7.04080783 5.00041636 7 7 C6 8 6 8 2.9375 8.0625 C1.968125 8.041875 0.99875 8.02125 0 8 C0 5.36 0 2.72 0 0 Z " fill="#E9E9E9" transform="translate(151,161)"/>
<path d="M0 0 C0.99 0 1.98 0 3 0 C3 4.62 3 9.24 3 14 C-1 12 -1 12 -2.25 9.375 C-2.4975 8.59125 -2.745 7.8075 -3 7 C-2.34 7 -1.68 7 -1 7 C-0.67 4.69 -0.34 2.38 0 0 Z " fill="#585858" transform="translate(142,158)"/>
<path d="M0 0 C1.134375 0.020625 2.26875 0.04125 3.4375 0.0625 C3.7675 1.0525 4.0975 2.0425 4.4375 3.0625 C2.7875 3.0625 1.1375 3.0625 -0.5625 3.0625 C-0.5625 3.7225 -0.5625 4.3825 -0.5625 5.0625 C0.4275 5.0625 1.4175 5.0625 2.4375 5.0625 C2.4375 6.0525 2.4375 7.0425 2.4375 8.0625 C0.1275 7.7325 -2.1825 7.4025 -4.5625 7.0625 C-4.60504356 5.06295254 -4.60330783 3.06208364 -4.5625 1.0625 C-3.5625 0.0625 -3.5625 0.0625 0 0 Z " fill="#F7F7F7" transform="translate(296.5625,160.9375)"/>
<path d="M0 0 C2.97 0.495 2.97 0.495 6 1 C6.04254356 2.99954746 6.04080783 5.00041636 6 7 C5 8 5 8 2.4375 8.0625 C1.633125 8.041875 0.82875 8.02125 0 8 C0 5.36 0 2.72 0 0 Z " fill="#F4F4F4" transform="translate(423,161)"/>
<path d="M0 0 C0.66 0.33 1.32 0.66 2 1 C-0.35779127 4.35054548 -3.06791994 7.14507994 -6 10 C-6.33 10.33 -6.66 10.66 -7 11 C-8.66617115 11.04063832 -10.33388095 11.042721 -12 11 C-8.19588166 7.08060535 -4.18423892 3.50897269 0 0 Z " fill="#F0F1F1" transform="translate(470,47)"/>
<path d="M0 0 C0.99 0 1.98 0 3 0 C3 4.62 3 9.24 3 14 C2.01 14 1.02 14 0 14 C0 9.38 0 4.76 0 0 Z " fill="#656465" transform="translate(305,158)"/>
<path d="M0 0 C0.99 0 1.98 0 3 0 C3 4.62 3 9.24 3 14 C2.01 14 1.02 14 0 14 C0 9.38 0 4.76 0 0 Z " fill="#666667" transform="translate(87,158)"/>
<path d="M0 0 C0.66 0 1.32 0 2 0 C2 3.63 2 7.26 2 11 C4.31 11 6.62 11 9 11 C9 11.66 9 12.32 9 13 C6.03 13 3.06 13 0 13 C0 8.71 0 4.42 0 0 Z " fill="#4F4F4F" transform="translate(396,159)"/>
<path d="M0 0 C0.33 0.66 0.66 1.32 1 2 C0.00390625 4.1640625 0.00390625 4.1640625 -1.4375 6.625 C-1.91058594 7.44226563 -2.38367188 8.25953125 -2.87109375 9.1015625 C-3.24363281 9.72804688 -3.61617188 10.35453125 -4 11 C-4.99 11 -5.98 11 -7 11 C-9.68767578 13.43750025 -9.68767578 13.43750025 -12 16 C-12.66 15.67 -13.32 15.34 -14 15 C-13.40832031 14.41992188 -12.81664062 13.83984375 -12.20703125 13.2421875 C-7.90148281 8.98580519 -3.76799131 4.74037617 0 0 Z " fill="#5A5B5B" transform="translate(462,80)"/>
<path d="M0 0 C3.43595166 1.52708963 6.11912454 3.59927045 9 6 C8.34 7.65 7.68 9.3 7 11 C4.40216125 8.4917419 1.96307619 6.0427681 0 3 C0 2.01 0 1.02 0 0 Z " fill="#D6EDDF" transform="translate(404,46)"/>
<path d="M0 0 C2.64 0 5.28 0 8 0 C8 0.33 8 0.66 8 1 C6.02 1 4.04 1 2 1 C2 2.98 2 4.96 2 7 C3.65 7 5.3 7 7 7 C7 7.33 7 7.66 7 8 C5.35 8 3.7 8 2 8 C2 9.65 2 11.3 2 13 C1.34 13 0.68 13 0 13 C0 8.71 0 4.42 0 0 Z " fill="#3A3939" transform="translate(346,159)"/>
<path d="M0 0 C1.98 0 3.96 0 6 0 C6 1.98 6 3.96 6 6 C2.18510326 7.46726798 -0.29011622 6.43336419 -4 5 C-1.3333581 3.66667905 0.16680303 4.32897967 3 5 C3 4.01 3 3.02 3 2 C2.01 2 1.02 2 0 2 C0 1.34 0 0.68 0 0 Z " fill="#717071" transform="translate(296,164)"/>
<path d="M0 0 C1.258125 -0.04125 2.51625 -0.0825 3.8125 -0.125 C4.52019531 -0.14820313 5.22789062 -0.17140625 5.95703125 -0.1953125 C8 0 8 0 11 2 C10.67 2.66 10.34 3.32 10 4 C7.69 3.67 5.38 3.34 3 3 C3 5.64 3 8.28 3 11 C4.32 11.33 5.64 11.66 7 12 C5.35 12 3.7 12 2 12 C2.02320313 11.30132812 2.04640625 10.60265625 2.0703125 9.8828125 C2.08835937 8.97273437 2.10640625 8.06265625 2.125 7.125 C2.15980469 5.76761719 2.15980469 5.76761719 2.1953125 4.3828125 C2.24324836 1.81193006 2.24324836 1.81193006 0 0 Z " fill="#808080" transform="translate(420,158)"/>
<path d="M0 0 C0.66 0 1.32 0 2 0 C2 1.98 2 3.96 2 6 C4.31 6 6.62 6 9 6 C9 6.33 9 6.66 9 7 C6.69 7 4.38 7 2 7 C2 8.98 2 10.96 2 13 C1.34 13 0.68 13 0 13 C0 8.71 0 4.42 0 0 Z " fill="#3A3A3A" transform="translate(212,159)"/>
<path d="M0 0 C4.59216906 4.06734974 7.2167907 8.56385928 10 14 C9.34 14.66 8.68 15.32 8 16 C6.66141476 13.71125827 5.32898986 11.41930344 4 9.125 C3.6184375 8.47402344 3.236875 7.82304688 2.84375 7.15234375 C0 2.2265625 0 2.2265625 0 0 Z " fill="#717171" transform="translate(410,61)"/>
<path d="M0 0 C0.33 0.66 0.66 1.32 1 2 C-0.98 2 -2.96 2 -5 2 C-5.99 4.97 -6.98 7.94 -8 11 C-8.33 11 -8.66 11 -9 11 C-9.08096803 9.54257537 -9.13917774 8.08387193 -9.1875 6.625 C-9.22230469 5.81289063 -9.25710937 5.00078125 -9.29296875 4.1640625 C-9.19628906 3.44992188 -9.09960938 2.73578125 -9 2 C-5.5647952 -0.29013653 -4.014669 -0.17842973 0 0 Z " fill="#4468C0" transform="translate(92,44)"/>
<path d="M0 0 C0.33 0 0.66 0 1 0 C1.20625 1.11375 1.4125 2.2275 1.625 3.375 C2.61628301 7.26599195 2.61628301 7.26599195 6.125 8.4375 C7.07375 8.623125 8.0225 8.80875 9 9 C9 9.33 9 9.66 9 10 C5.6875 10.25 5.6875 10.25 2 10 C-0.4949035 7.82701953 -0.94447077 6.5969392 -1.25 3.3125 C-1 1 -1 1 0 0 Z " fill="#484848" transform="translate(290,162)"/>
<path d="M0 0 C-0.75 1.9375 -0.75 1.9375 -2 4 C-4 4.8125 -4 4.8125 -6 5 C-6.66 4.67 -7.32 4.34 -8 4 C-7.67 2.68 -7.34 1.36 -7 0 C-2.25 -1.125 -2.25 -1.125 0 0 Z " fill="#A9C4EE" transform="translate(533,18)"/>
<path d="M0 0 C3 0.25 3 0.25 5 2.25 C3 4.25 3 4.25 0.5 4.3125 C-0.7375 4.2815625 -0.7375 4.2815625 -2 4.25 C-2.99 4.745 -2.99 4.745 -4 5.25 C-4.33 4.26 -4.66 3.27 -5 2.25 C-3 0.25 -3 0.25 0 0 Z " fill="#676767" transform="translate(249,157.75)"/>
<path d="M0 0 C3.375 -0.125 3.375 -0.125 7 0 C9 2 9 2 9.125 5.625 C9.08375 6.73875 9.0425 7.8525 9 9 C8.34 9 7.68 9 7 9 C6.34 6.69 5.68 4.38 5 2 C3.35 1.67 1.7 1.34 0 1 C0 0.67 0 0.34 0 0 Z " fill="#474747" transform="translate(276,159)"/>
<path d="M0 0 C0 1.32 0 2.64 0 4 C-1.65 4 -3.3 4 -5 4 C-5 3.34 -5 2.68 -5 2 C-5.66 1.67 -6.32 1.34 -7 1 C-4.53721199 -0.231394 -2.7204945 -0.07159196 0 0 Z " fill="#E5E5E5" transform="translate(333,166)"/>
<path d="M0 0 C0.99 0.33 1.98 0.66 3 1 C2.01 3.97 1.02 6.94 0 10 C-0.99 9.34 -1.98 8.68 -3 8 C-1.125 2.25 -1.125 2.25 0 0 Z " fill="#606060" transform="translate(370,159)"/>
<path d="M0 0 C1.98 0 3.96 0 6 0 C6 1.32 6 2.64 6 4 C4.02 4 2.04 4 0 4 C0 2.68 0 1.36 0 0 Z " fill="#EBEBEB" transform="translate(348,161)"/>
<path d="M0 0 C1.98 0 3.96 0 6 0 C6 1.32 6 2.64 6 4 C4.02 4 2.04 4 0 4 C0 2.68 0 1.36 0 0 Z " fill="#EBEBEB" transform="translate(75,161)"/>
<path d="M0 0 C1.32 0.33 2.64 0.66 4 1 C3.67 2.32 3.34 3.64 3 5 C2.34 4.67 1.68 4.34 1 4 C1 6.64 1 9.28 1 12 C0.67 12 0.34 12 0 12 C0 8.04 0 4.08 0 0 Z " fill="#3C3C3C" transform="translate(109,159)"/>
<path d="M0 0 C0.66 0 1.32 0 2 0 C2.12375 1.093125 2.2475 2.18625 2.375 3.3125 C2.75464801 7.07381802 2.75464801 7.07381802 5 10 C1.125 9.125 1.125 9.125 0 8 C-0.14115161 5.32941149 -0.04247107 2.67567762 0 0 Z " fill="#414141" transform="translate(243,161)"/>
<path d="M0 0 C0 0.66 0 1.32 0 2 C-2.95664519 3.4783226 -5.74229737 3.06032783 -9 3 C-9.33 2.34 -9.66 1.68 -10 1 C-6.52674819 -0.1577506 -3.63932552 -0.06866652 0 0 Z " fill="#6F6F6F" transform="translate(105,169)"/>
<path d="M0 0 C0.66 0 1.32 0 2 0 C2.99 2.31 3.98 4.62 5 7 C1.88801935 5.50163895 -1.0534615 3.80066242 -4 2 C-3.34 1.67 -2.68 1.34 -2 1 C-1.34 1.33 -0.68 1.66 0 2 C0 1.34 0 0.68 0 0 Z " fill="#525252" transform="translate(428,54)"/>
<path d="M0 0 C0.33 0 0.66 0 1 0 C1.25 3.3125 1.25 3.3125 1 7 C-0.875 8.9375 -0.875 8.9375 -3 10 C-3.66 10 -4.32 10 -5 10 C-4.34 8.68 -3.68 7.36 -3 6 C-2.01 6 -1.02 6 0 6 C0 4.02 0 2.04 0 0 Z " fill="#6A6A6A" transform="translate(285,162)"/>
<path d="M0 0 C0.66 0.33 1.32 0.66 2 1 C-0.31 3.31 -2.62 5.62 -5 8 C-5.99 7.67 -6.98 7.34 -8 7 C-5.36 4.69 -2.72 2.38 0 0 Z " fill="#DBDCDB" transform="translate(466,50)"/>
<path d="M0 0 C-2.57404971 3.86107457 -4.61020259 3.94319692 -9 5 C-9 4.01 -9 3.02 -9 2 C-5.86501708 0.14223235 -3.62528568 -0.20140476 0 0 Z " fill="#BACEEC" transform="translate(524,20)"/>
<path d="M0 0 C-3.28463659 2.18975773 -6.20696275 2.99806563 -10 4 C-10.66 3.34 -11.32 2.68 -12 2 C-7.82262526 0.40861915 -4.46839215 -0.21278058 0 0 Z " fill="#C5CFE8" transform="translate(554,11)"/>
<path d="M0 0 C3.625 -0.1875 3.625 -0.1875 7 0 C7 0.66 7 1.32 7 2 C4.04335481 3.4783226 1.25770263 3.06032783 -2 3 C-1.34 2.01 -0.68 1.02 0 0 Z " fill="#6F6F6F" transform="translate(201,169)"/>
<path d="M0 0 C2.97 0.495 2.97 0.495 6 1 C5.67 1.99 5.34 2.98 5 4 C2.03 3.505 2.03 3.505 -1 3 C-0.67 2.01 -0.34 1.02 0 0 Z " fill="#CFCFCF" transform="translate(329,160)"/>
<path d="M0 0 C2 0.3125 2 0.3125 4 1 C4.33 1.66 4.66 2.32 5 3 C3.35 3 1.7 3 0 3 C0 3.66 0 4.32 0 5 C0.99 5.33 1.98 5.66 3 6 C1.68 6 0.36 6 -1 6 C-1.042721 4.33388095 -1.04063832 2.66617115 -1 1 C-0.67 0.67 -0.34 0.34 0 0 Z " fill="#D5D5D5" transform="translate(296,161)"/>
<path d="M0 0 C2.46800047 1.15173355 4.04783565 2.04783565 6 4 C5.01 4.99 4.02 5.98 3 7 C0 3.375 0 3.375 0 0 Z " fill="#E1EBE3" transform="translate(404,46)"/>
<path d="M0 0 C0.66 0 1.32 0 2 0 C2.33 1.32 2.66 2.64 3 4 C2.34 4 1.68 4 1 4 C1 6.64 1 9.28 1 12 C0.67 12 0.34 12 0 12 C0 8.04 0 4.08 0 0 Z " fill="#3D3D3D" transform="translate(228,159)"/>
<path d="M0 0 C2.31 0 4.62 0 7 0 C7.33 0.99 7.66 1.98 8 3 C5.36 2.67 2.72 2.34 0 2 C0 1.34 0 0.68 0 0 Z " fill="#545354" transform="translate(293,158)"/>
<path d="M0 0 C0.94875 0.04125 1.8975 0.0825 2.875 0.125 C2.875 1.115 2.875 2.105 2.875 3.125 C0 3.75 0 3.75 -3.125 4.125 C-3.785 3.465 -4.445 2.805 -5.125 2.125 C-3.125 0.125 -3.125 0.125 0 0 Z " fill="#797979" transform="translate(278.125,157.875)"/>
<path d="M0 0 C6.75 -0.125 6.75 -0.125 9 1 C9 1.66 9 2.32 9 3 C4.545 2.01 4.545 2.01 0 1 C0 0.67 0 0.34 0 0 Z " fill="#5A5959" transform="translate(327,158)"/>
</svg>
